<svg width="168" height="42" viewBox="0 0 168 42" fill="none" xmlns="http://www.w3.org/2000/svg">
<path d="M33.4901 7.41998H26.4601C25.8601 7.41998 25.3901 7.99998 25.3901 8.70998V33.13C25.3901 33.73 25.8601 34.31 26.4601 34.31H33.4901C34.0901 34.31 34.5601 33.73 34.5601 33.13V8.70998C34.5601 7.99998 34.0901 7.41998 33.4901 7.41998Z" fill="#F5A623"/>
<path d="M23.9101 15.76H16.8801C16.2801 15.76 15.8101 16.34 15.8101 17.05V33.04C15.8101 33.75 16.2801 34.33 16.8801 34.33H23.9101C24.5101 34.33 24.9801 33.75 24.9801 33.04V17.05C24.9801 16.34 24.5101 15.76 23.9101 15.76Z" fill="#F5A623"/>
<path d="M14.3201 24.01H7.29007C6.69007 24.01 6.22007 24.59 6.22007 25.3V33.04C6.22007 33.75 6.69007 34.33 7.29007 34.33H14.3201C14.9201 34.33 15.3901 33.75 15.3901 33.04V25.3C15.3901 24.59 14.9201 24.01 14.3201 24.01Z" fill="#F5A623"/>
<path d="M53.0401 26.95H50.0601V32.15C50.0601 32.77 49.8901 33.27 49.4401 33.61C48.9901 33.97 48.4301 34.14 47.7701 34.14C47.1101 34.14 46.5501 33.97 46.1001 33.61C45.6501 33.27 45.4801 32.77 45.4801 32.15V14.74C45.4801 14.12 45.6501 13.61 46.1001 13.25C46.5501 12.91 47.1101 12.72 47.7701 12.72C48.4301 12.72 48.9901 12.91 49.4401 13.25C49.8901 13.61 50.0601 14.12 50.0601 14.74V22.17H53.0401V14.55C53.0401 13.54 52.8701 12.68 52.5301 11.95C52.1901 11.23 51.7001 10.66 51.0701 10.26C50.4401 9.85998 49.6801 9.64998 48.7701 9.64998C47.9401 9.64998 47.2101 9.85998 46.5701 10.26C45.9401 10.66 45.4501 11.23 45.1101 11.95L45.0001 12.24V10.16C45.0001 9.89998 44.9401 9.68998 44.8101 9.52998C44.6801 9.36998 44.4801 9.31998 44.2201 9.31998C43.9601 9.31998 43.7501 9.39998 43.6201 9.55998C43.4901 9.72998 43.4301 9.93998 43.4301 10.2V32.07C43.4301 33.06 43.5901 33.91 43.9301 34.65C44.2701 35.38 44.7601 35.95 45.3901 36.36C46.0201 36.76 46.7801 36.97 47.6901 36.97C48.5001 36.97 49.2501 36.78 49.8801 36.38C50.5101 35.98 51.0001 35.42 51.3401 34.69C51.6801 33.96 51.8501 33.1 51.8501 32.11V28.95C51.8501 28.69 51.7901 28.48 51.6601 28.32C51.5301 28.16 51.3301 28.11 51.0701 28.11C50.8101 28.11 50.6001 28.19 50.4701 28.35C50.3401 28.52 50.2801 28.73 50.2801 28.99V31.17H53.0401V26.95Z" fill="#03022E"/>
<path d="M65.73 21.48H60.52V32.11C60.52 33.1 60.35 33.95 60.01 34.69C59.67 35.42 59.18 35.99 58.55 36.4C57.92 36.8 57.14 37.01 56.23 37.01C55.32 37.01 54.54 36.8 53.91 36.4C53.28 35.99 52.79 35.42 52.46 34.69C52.12 33.97 51.95 33.12 51.95 32.11V14.5C51.95 13.47 52.12 12.6 52.46 11.9C52.79 11.2 53.28 10.64 53.91 10.23C54.54 9.82998 55.31 9.62998 56.2 9.62998C57.13 9.62998 57.91 9.82998 58.54 10.23C59.17 10.64 59.66 11.2 60 11.9C60.34 12.61 60.51 13.47 60.51 14.5V17.5H63.27V14.5C63.27 13.2 63.03 12.05 62.55 11.07C62.07 10.09 61.4 9.31998 60.53 8.75998C59.66 8.19998 58.62 7.89998 57.44 7.87998C56.26 7.85998 55.22 8.11998 54.32 8.65998C53.42 9.19998 52.74 9.94998 52.26 10.91C51.78 11.87 51.54 13 51.54 14.29V32.34C51.54 33.64 51.79 34.79 52.29 35.77C52.79 36.75 53.47 37.52 54.35 38.08C55.23 38.64 56.27 38.92 57.47 38.92C58.67 38.92 59.71 38.64 60.59 38.08C61.47 37.52 62.15 36.75 62.65 35.77C63.15 34.79 63.4 33.66 63.4 32.36V23.48H65.73V21.48Z" fill="#03022E"/>
<path d="M76.61 22.7H73.85V26.8C73.85 27.75 73.69 28.58 73.36 29.3C73.03 30.01 72.55 30.56 71.92 30.94C71.29 31.33 70.55 31.52 69.7 31.52C68.85 31.52 68.12 31.33 67.48 30.94C66.85 30.56 66.37 30.01 66.03 29.3C65.7 28.59 65.54 27.77 65.54 26.82V14.72C65.54 13.77 65.7 12.94 66.03 12.22C66.36 11.51 66.84 10.96 67.47 10.57C68.1 10.18 68.84 9.98998 69.69 9.98998C70.54 9.98998 71.28 10.18 71.91 10.57C72.54 10.96 73.02 11.51 73.35 12.22C73.68 12.93 73.85 13.76 73.85 14.72V18.46H76.61V14.5C76.61 13.2 76.36 12.05 75.86 11.07C75.36 10.09 74.67 9.32998 73.79 8.77998C72.91 8.22998 71.88 7.95998 70.7 7.95998C69.52 7.95998 68.48 8.22998 67.61 8.77998C66.74 9.32998 66.05 10.09 65.56 11.07C65.07 12.05 64.83 13.2 64.83 14.5V27.02C64.83 28.34 65.08 29.49 65.59 30.47C66.1 31.45 66.8 32.22 67.68 32.77C68.56 33.32 69.6 33.6 70.78 33.6C71.96 33.6 73 33.33 73.88 32.77C74.76 32.22 75.45 31.45 75.95 30.47C76.45 29.49 76.7 28.34 76.7 27.02V24.7H76.61V22.7Z" fill="#03022E"/>
<path d="M88.84 26.9H85.86V32.11C85.86 32.73 85.69 33.24 85.24 33.6C84.79 33.96 84.23 34.14 83.57 34.14C82.91 34.14 82.35 33.97 81.9 33.6C81.45 33.26 81.28 32.75 81.28 32.11V10.2C81.28 9.93998 81.22 9.72998 81.09 9.55998C80.96 9.38998 80.75 9.31998 80.49 9.31998C80.23 9.31998 80.03 9.39998 79.9 9.55998C79.77 9.71998 79.71 9.92998 79.71 10.19V32.09C79.71 33.08 79.87 33.93 80.21 34.67C80.55 35.4 81.04 35.97 81.67 36.38C82.3 36.78 83.06 36.99 83.97 36.99C84.88 36.99 85.64 36.78 86.27 36.38C86.9 35.97 87.39 35.4 87.73 34.67C88.07 33.94 88.24 33.08 88.24 32.09V28.9C88.24 28.64 88.18 28.43 88.05 28.26C87.92 28.09 87.72 28.04 87.46 28.04C87.2 28.04 87 28.12 86.87 28.26C86.74 28.42 86.68 28.63 86.68 28.9V31.09H88.89V26.9H88.84Z" fill="#03022E"/>
<path d="M99.08 33.9C98.8 33.79 98.57 33.6 98.37 33.32C98.17 33.04 98.07 32.66 98.07 32.18V12.1C98.07 11.49 98.24 10.98 98.69 10.62C99.14 10.26 99.7 10.08 100.36 10.08C101.02 10.08 101.58 10.25 102.03 10.62C102.48 10.96 102.65 11.47 102.65 12.1V32.01C102.65 32.27 102.71 32.48 102.84 32.65C102.97 32.82 103.18 32.89 103.43 32.89C103.69 32.89 103.89 32.81 104.02 32.65C104.15 32.49 104.21 32.28 104.21 32.01V12.1C104.21 11.11 104.05 10.26 103.71 9.52998C103.37 8.79998 102.88 8.22998 102.25 7.81998C101.62 7.40998 100.86 7.20998 99.95 7.20998C99.04 7.20998 98.28 7.41998 97.65 7.81998C97.02 8.21998 96.53 8.78998 96.19 9.51998C95.85 10.24 95.68 11.09 95.68 12.08V31.67C95.68 32.44 95.84 33.1 96.17 33.66C96.5 34.22 96.95 34.66 97.53 34.96C98.11 35.26 98.77 35.41 99.52 35.41C99.88 35.41 100.2 35.38 100.47 35.32C100.74 35.26 100.95 35.17 101.11 35.03C101.27 34.9 101.35 34.71 101.35 34.5C101.35 34.25 101.28 34.06 101.14 33.91C101 33.76 100.84 33.69 100.66 33.69C100.42 33.69 100.2 33.74 99.99 33.84L99.08 33.9Z" fill="#03022E"/>
<path d="M117.78 19.87C117.78 17.91 117.36 16.32 116.52 15.1C115.68 13.88 114.5 13.28 112.99 13.28C112.14 13.28 111.39 13.48 110.74 13.9C110.09 14.31 109.59 14.87 109.21 15.57V10.2C109.21 9.93998 109.15 9.72998 109.02 9.55998C108.89 9.38998 108.68 9.31998 108.42 9.31998C108.16 9.31998 107.96 9.39998 107.83 9.55998C107.7 9.71998 107.64 9.92998 107.64 10.19V27.04C107.64 28.34 107.89 29.49 108.39 30.47C108.89 31.45 109.58 32.22 110.46 32.77C111.34 33.32 112.35 33.6 113.5 33.6C114.65 33.6 115.65 33.33 116.52 32.79C117.39 32.25 118.07 31.48 118.56 30.5C119.05 29.52 119.3 28.36 119.3 27.02V23.48H116.54V27.04C116.54 27.99 116.37 28.82 116.04 29.53C115.71 30.24 115.22 30.79 114.59 31.17C113.96 31.56 113.2 31.76 112.33 31.76C111.46 31.76 110.72 31.57 110.09 31.17C109.46 30.79 108.97 30.24 108.64 29.53C108.31 28.82 108.14 27.99 108.14 27.04V19.89C108.14 18.94 108.31 18.11 108.64 17.4C108.97 16.69 109.46 16.14 110.09 15.75C110.72 15.36 111.47 15.17 112.34 15.17C113.21 15.17 113.94 15.36 114.57 15.75C115.2 16.14 115.67 16.67 116 17.37C116.33 18.07 116.5 18.87 116.5 19.84H117.78V19.87Z" fill="#03022E"/>
<path d="M129.41 13.28C128.56 13.28 127.81 13.48 127.16 13.9C126.51 14.31 126.01 14.87 125.63 15.57V14.68C125.63 14.41 125.57 14.2 125.44 14.03C125.31 13.86 125.1 13.81 124.84 13.81C124.58 13.81 124.38 13.89 124.25 14.05C124.12 14.21 124.06 14.42 124.06 14.68V32.11C124.06 32.37 124.12 32.58 124.25 32.75C124.38 32.92 124.59 32.97 124.84 32.97C125.1 32.97 125.3 32.89 125.43 32.73C125.56 32.57 125.62 32.36 125.62 32.1V26.22C126 26.92 126.5 27.48 127.14 27.89C127.78 28.31 128.52 28.51 129.39 28.51C130.51 28.51 131.49 28.2 132.32 27.6C133.15 26.99 133.79 26.14 134.24 25.04C134.69 23.94 134.91 22.66 134.91 21.19C134.91 19.73 134.69 18.48 134.24 17.42C133.79 16.36 133.15 15.53 132.32 14.94C131.48 14.35 130.51 14.06 129.41 14.06V13.28ZM131.67 24.41C131.34 25.13 130.86 25.7 130.23 26.11C129.6 26.53 128.85 26.73 127.98 26.73C127.11 26.73 126.36 26.53 125.74 26.11C125.11 25.7 124.63 25.14 124.3 24.41C123.97 23.68 123.8 22.84 123.8 21.87V20.5C123.8 19.54 123.97 18.69 124.3 17.96C124.63 17.23 125.11 16.66 125.74 16.26C126.37 15.85 127.11 15.65 127.98 15.65C128.85 15.65 129.6 15.85 130.23 16.26C130.86 16.67 131.34 17.24 131.67 17.96C132 18.68 132.17 19.53 132.17 20.5V21.85C132.17 22.81 132 23.66 131.67 24.39V24.41Z" fill="#03022E"/>
<path d="M145.65 13.28C144.8 13.28 144.05 13.48 143.4 13.9C142.75 14.31 142.25 14.87 141.87 15.57V14.68C141.87 14.41 141.81 14.2 141.68 14.03C141.55 13.86 141.34 13.81 141.08 13.81C140.82 13.81 140.62 13.89 140.49 14.05C140.36 14.21 140.3 14.42 140.3 14.68V32.11C140.3 32.37 140.36 32.58 140.49 32.75C140.62 32.92 140.83 32.97 141.08 32.97C141.34 32.97 141.54 32.89 141.67 32.73C141.8 32.57 141.86 32.36 141.86 32.1V26.22C142.24 26.92 142.74 27.48 143.38 27.89C144.02 28.31 144.76 28.51 145.63 28.51C146.75 28.51 147.73 28.2 148.56 27.6C149.39 26.99 150.03 26.14 150.48 25.04C150.93 23.94 151.15 22.66 151.15 21.19C151.15 19.73 150.93 18.48 150.48 17.42C150.03 16.36 149.39 15.53 148.56 14.94C147.73 14.35 146.74 14.06 145.65 14.06V13.28ZM147.91 24.41C147.58 25.13 147.1 25.7 146.47 26.11C145.84 26.53 145.09 26.73 144.22 26.73C143.35 26.73 142.6 26.53 141.98 26.11C141.35 25.7 140.87 25.14 140.54 24.41C140.21 23.68 140.04 22.84 140.04 21.87V20.5C140.04 19.54 140.21 18.69 140.54 17.96C140.87 17.23 141.35 16.66 141.98 16.26C142.61 15.85 143.35 15.65 144.22 15.65C145.09 15.65 145.84 15.85 146.47 16.26C147.1 16.67 147.58 17.24 147.91 17.96C148.24 18.68 148.41 19.53 148.41 20.5V21.85C148.41 22.81 148.24 23.66 147.91 24.39V24.41Z" fill="#03022E"/>
<path d="M163.25 13.59H154.9V15.53H163.25V13.59Z" fill="#03022E"/>
<path d="M163.25 19.45H154.9V21.39H163.25V19.45Z" fill="#03022E"/>
<path d="M163.25 25.31H154.9V27.25H163.25V25.31Z" fill="#03022E"/>
<path d="M167.54 14.05C167.41 14.21 167.35 14.42 167.35 14.68V32.09C167.35 32.35 167.41 32.56 167.54 32.73C167.67 32.9 167.88 32.95 168.14 32.95C168.4 32.95 168.6 32.87 168.73 32.71C168.86 32.55 168.92 32.34 168.92 32.07V14.66C168.92 14.4 168.86 14.19 168.73 14.02C168.6 13.85 168.39 13.8 168.14 13.8C167.88 13.8 167.68 13.88 167.54 14.05Z" fill="#03022E"/>
<path d="M6.12 19.89C9.37 19.89 12 17.26 12 14.01C12 10.76 9.37 8.12998 6.12 8.12998C2.87 8.12998 0.23999 10.76 0.23999 14.01C0.23999 17.26 2.87 19.89 6.12 19.89Z" fill="#F5A623"/>
<path d="M168.07 10.57C169.3 10.57 170.31 9.55998 170.31 8.32998C170.31 7.09998 169.3 6.08998 168.07 6.08998C166.84 6.08998 165.83 7.09998 165.83 8.32998C165.83 9.55998 166.84 10.57 168.07 10.57Z" fill="#03022E"/>
<path d="M156.71 10.57C157.94 10.57 158.95 9.55998 158.95 8.32998C158.95 7.09998 157.94 6.08998 156.71 6.08998C155.48 6.08998 154.47 7.09998 154.47 8.32998C154.47 9.55998 155.48 10.57 156.71 10.57Z" fill="#03022E"/>
</svg>
