<svg width="170" height="45" viewBox="0 0 170 45" fill="none" xmlns="http://www.w3.org/2000/svg">
<path d="M74.9733 33.9107H79.4488V23.4694H74.9733V33.9107ZM74.9733 21.2666H79.4488V17.2825H74.9733V21.2666ZM85.8337 21.1318H81.5462V23.4694H83.9031V29.5924C83.9031 32.5127 85.5156 34.0769 88.5604 34.0769C89.6279 34.0769 90.6338 33.9731 91.0869 33.8281V30.5362C90.7369 30.6089 90.2527 30.6401 89.8872 30.6401C88.7166 30.6401 88.2223 30.1456 88.2223 28.9862V23.4694H91.0869V21.1318H88.2223V16.8088H83.9031V21.1318H85.8337ZM105.394 25.8693C105.051 23.0834 102.829 21.2046 99.1662 21.2046C95.5035 21.2046 93.0743 23.0834 93.0743 25.93C93.0743 28.2158 94.5618 29.8317 97.5334 30.3365L100.115 30.7898C101.151 30.9969 101.573 31.3777 101.573 31.9652C101.573 32.7745 100.723 33.3205 99.3792 33.3205C97.9123 33.3205 97.0012 32.6814 96.7882 31.4704L92.5326 31.6361C92.8926 34.5563 95.3013 36.1826 99.3584 36.1826C103.167 36.1826 106 34.1215 106 31.2114C106 28.9671 104.513 27.4133 101.511 26.8776L98.929 26.4243C97.7688 26.1966 97.3884 25.8177 97.3884 25.2715C97.3884 24.4622 98.2369 23.9366 99.4596 23.9366C100.847 23.9366 101.667 24.6273 101.819 25.7141L105.394 25.8693ZM114.184 21.5232C113.409 21.3472 112.675 21.2666 111.962 21.2666C109.302 21.2666 107.835 22.3844 107.835 25.3313V33.9107H112.155V25.0826C112.155 24.1182 112.696 23.6857 113.9 23.6857C114.229 23.6857 114.527 23.706 114.782 23.7475V21.5232H114.184ZM122.385 21.2666C117.543 21.2666 114.477 24.4005 114.477 29.2012C114.477 33.9937 117.543 37.1276 122.385 37.1276C127.228 37.1276 130.294 33.9937 130.294 29.2012C130.294 24.4005 127.228 21.2666 122.385 21.2666ZM122.385 23.9984C124.722 23.9984 125.935 26.0906 125.935 29.2012C125.935 32.3117 124.722 34.3938 122.385 34.3938C120.048 34.3938 118.835 32.3117 118.835 29.2012C118.835 26.0906 120.048 23.9984 122.385 23.9984ZM143.55 21.2666H139.074V33.9107H143.55V21.2666ZM143.55 17.2825H139.074V20.2644H143.55V17.2825ZM138.366 21.2666H133.891V33.9107H138.366V21.2666ZM138.366 17.2825H133.891V20.2644H138.366V17.2825ZM154.152 33.9107H159.021V17.2825H154.701V28.0012L150.225 17.2825H145.356V33.9107H149.676V22.9443L154.152 33.9107ZM170 33.9107V21.2666H165.682V33.9107H170Z" fill="#011B33"/>
<path d="M35.0164 34.0564V16.0667H19.9344L20.1748 34.0564L15.0902 34.0978V9.89888C15.0902 9.05546 15.7869 8.3779 16.6393 8.3779H24.918C24.918 6.44762 26.5246 4.8874 28.4918 4.8874C30.459 4.8874 32.0656 6.44762 32.0656 8.3779H38.7459C39.5983 8.3779 40.2951 9.05546 40.2951 9.89888V34.2631H35.0164V34.0564Z" fill="#00C3F7"/>
<path d="M25.0377 44.4104H23.0328C21.8852 44.4104 20.9372 43.4844 20.9372 42.3494V40.3973C20.9372 39.2623 21.8852 38.3363 23.0377 38.3363H25.0377C26.1902 38.3363 27.1381 39.2623 27.1381 40.3973V42.3494C27.1381 43.4844 26.1902 44.4104 25.0377 44.4104Z" fill="#00C3F7"/>
<path d="M0 38.3291H11.7213V21.9313H0V38.3291ZM6.24607 35.8126C5.02049 35.8126 3.98361 34.7965 3.98361 33.5823C3.98361 32.3682 5.02049 31.352 6.24607 31.352C7.47165 31.352 8.50853 32.3682 8.50853 33.5823C8.50853 34.7965 7.47165 35.8126 6.24607 35.8126Z" fill="#00C3F7"/>
<path d="M14.2086 2.93231C14.2086 1.31296 15.3456 0 16.7724 0H26.0889C27.5157 0 28.6526 1.31296 28.6526 2.93231C28.6526 4.55166 27.5157 5.86462 26.0889 5.86462H16.7724C15.3456 5.86462 14.2086 4.55166 14.2086 2.93231Z" fill="#00C3F7"/>
</svg>
